<?xml version="1.0" encoding="UTF-8"?>
<svg xmlns="http://www.w3.org/2000/svg" xmlns:xlink="http://www.w3.org/1999/xlink" width="auto" height="100px" viewBox="0 0 138 752" version="1.1">
<g id="surface1">
<path style="fill-rule:nonzero;fill:rgb(100%,100%,100%);fill-opacity:1;stroke-width:17.716537;stroke-linecap:butt;stroke-linejoin:miter;stroke:rgb(0%,0%,0%);stroke-opacity:1;stroke-miterlimit:4;" d="M 375.849437 -2.349686 C 418.864892 178.465016 376.394331 266.043972 273.829792 266.043972 C 171.265254 266.043972 133.854419 151.053738 164.773237 1.577342 C 209.64133 -215.2507 244.125309 -268.857748 407.499969 -481.52501 C 387.60357 -162.594242 316.705132 -187.808255 375.849437 -2.349686 Z M 375.849437 -2.349686 " transform="matrix(0.250909,0,0,0.250667,-2.714197,132.678832)"/>
<path style="fill-rule:nonzero;fill:rgb(100%,100%,100%);fill-opacity:1;stroke-width:17.716536;stroke-linecap:butt;stroke-linejoin:miter;stroke:rgb(0%,0%,0%);stroke-opacity:1;stroke-miterlimit:4;" d="M 29.128453 929.412192 L 29.128453 2898.941365 L 29.315274 2898.941365 C 32.257699 2939.925823 141.002887 2972.869224 274.750906 2972.869224 C 408.498924 2972.869224 517.275249 2939.925823 520.217674 2898.941365 L 520.529042 929.412192 Z M 29.128453 929.412192 " transform="matrix(0.250909,0,0,0.250667,0,0)"/>
<path style="fill-rule:nonzero;fill:rgb(100%,100%,100%);fill-opacity:1;stroke-width:15.251899;stroke-linecap:butt;stroke-linejoin:miter;stroke:rgb(0%,0%,0%);stroke-opacity:1;stroke-miterlimit:4;" d="M 79.248468 933.238836 C 79.248468 975.01805 -2.464274 1008.880874 -103.261014 1008.880874 C -204.057754 1008.880874 -285.770496 975.01805 -285.770496 933.238836 C -285.770496 891.459622 -204.057754 857.596798 -103.261014 857.596798 C -2.464274 857.596798 79.248468 891.459622 79.248468 933.238836 Z M 79.248468 933.238836 " transform="matrix(0.338553,0,0,0.250667,103.959286,-1.884993)"/>
<path style="fill:none;stroke-width:17.716536;stroke-linecap:round;stroke-linejoin:miter;stroke:rgb(0%,0%,0%);stroke-opacity:1;stroke-miterlimit:4;" d="M 279.014066 394.451552 L 279.014066 185.94507 " transform="matrix(0.250909,0,0,0.250667,-2.714197,132.678832)"/>
</g>
</svg>
